<?xml version="1.0" encoding="UTF-8"?>
<svg width="44px" height="44px" viewBox="0 0 44 44" version="1.1" xmlns="http://www.w3.org/2000/svg" xmlns:xlink="http://www.w3.org/1999/xlink">
    <title>icon/wallet</title>
    <g id="icon/wallet" stroke="none" stroke-width="1" fill="none" fillRule="evenodd">
        <circle id="circle_sqy" fill="#D9ECFF" fillRule="nonzero" cx="22" cy="22" r="22"></circle>
        <path d="M22,18.2775267 C19.7042267,18.2775267 17.9345467,19.5761867 16.9479933,20.48574 C16.8010333,20.62126 16.57326,20.6214067 16.4306267,20.48134 L14.88212,18.9605533 C14.7357467,18.81682 14.7344267,18.5814933 14.8843933,18.4415733 C16.0644,17.3402533 18.5524533,15.4 22,15.4 C25.4475467,15.4 27.9356,17.3402533 29.1156067,18.4415733 C29.2655733,18.5814933 29.2642533,18.81682 29.11788,18.9605533 L27.5693733,20.48134 C27.42674,20.6214067 27.1989667,20.62126 27.0520067,20.48574 C26.0654533,19.5761867 24.2957733,18.2775267 22,18.2775267 Z M10.54416,23.4245733 C10.3917,23.2873667 10.3814333,23.05182 10.5214267,22.9019267 L12.0008533,21.3169 C12.1372533,21.1707467 12.3656133,21.1608467 12.5141867,21.2946067 L16.88258,25.22718 C17.0211067,25.35192 17.2311333,25.3528733 17.37076,25.2294533 L21.7571933,21.3523933 C21.8958667,21.22978 22.1041333,21.22978 22.2428067,21.3523933 L26.62924,25.2294533 C26.7688667,25.3528733 26.9788933,25.35192 27.11742,25.22718 L31.4858133,21.2946067 C31.6343867,21.1608467 31.8627467,21.1707467 31.9991467,21.3169 L33.4785733,22.9019267 C33.6185667,23.05182 33.6083,23.2873667 33.45584,23.4245733 L27.13546,29.1145067 C26.9970067,29.2391733 26.78698,29.2401267 26.6473533,29.1167067 L22.2428067,25.22366 C22.1041333,25.10112 21.8958667,25.10112 21.7571933,25.22366 L17.3526467,29.1167067 C17.21302,29.2401267 17.0029933,29.2391733 16.86454,29.1145067 L10.54416,23.4245733 Z" id="cc" fill="#278FFC"></path>
    </g>
</svg>