<?xml version="1.0" encoding="UTF-8"?>
<svg width="44px" height="44px" viewBox="0 0 44 44" version="1.1" xmlns="http://www.w3.org/2000/svg" xmlns:xlink="http://www.w3.org/1999/xlink">
    <title>icon/matemask</title>
    <g id="icon/matemask" stroke="none" stroke-width="1" fill="none" fillRule="evenodd">
        <g id="metamask">
            <circle id="circle_squ" fill="#FFD3A2" fillRule="nonzero" cx="22" cy="22" r="22"></circle>
            <polygon id="path_syq" fill="#CDBDB2" points="27.0187867 30.54656 23.9404733 31.3728067 23.9404733 30.2862267 23.6951 30.03726 21.9329 30.03726 21.9329 31.3049 21.9329 32.19898 23.8177867 32.19898 26.1376133 31.18038"></polygon>
            <polygon id="path_syq" fill="#CDBDB2" points="16.9810667 30.54656 19.9924267 31.3728067 19.9924267 30.2862267 20.2489467 30.03726 22 30.03726 22 31.3049 22 32.19898 20.1151133 32.19898 17.7952133 31.18038"></polygon>
            <polygon id="path_syq" fill="#393939" points="23.6953933 28.1920467 23.9407667 30.2859333 23.62844 30.0368933 20.3717067 30.0368933 19.9925 30.2859333 20.24902 28.1920467 20.7509133 27.8751733 23.26038 27.9317867"></polygon>
            <polygon id="path_syq" fill="#F89C35" points="25.3909333 13.9876733 23.8852533 17.55292 23.1937933 27.9315667 20.7512067 27.9315667 19.9927933 17.55292 18.6098 13.9876733"></polygon>
            <polygon id="path_syq" fill="#F89D35" points="31.9711333 21.8201133 33.7333333 26.9811667 29.33898 26.7208333 26.5171867 26.7208333 26.5171867 24.4912067 26.6398733 19.9186533 27.2756 20.41666"></polygon>
            <polygon id="path_syq" fill="#D87C30" points="28.6465667 22.3973933 23.5049467 22.52184 24.07372 25.1929333 26.5163067 24.5591133"></polygon>
            <polygon id="path_syq" fill="#EA8D3A" points="28.6465667 22.4537867 26.5163067 24.4909867 26.5163067 26.52826"></polygon>
            <polygon id="path_syq" fill="#F89D35" points="26.5167467 24.5587467 24.00728 25.1924933 23.19306 27.9314933 23.7619067 28.24844 26.5167467 26.5959467"></polygon>
            <polygon id="path_syq" fill="#EB8F35" points="26.51682 26.5963867 27.0187867 30.5464133 23.6951 28.1922667"></polygon>
            <polygon id="path_syq" fill="#EA8E3A" points="23.5072933 22.5217667 23.1953333 27.9317867 24.1312133 25.1702"></polygon>
            <polygon id="path_syq" fill="#D87C30" points="29.4063733 26.6642933 26.5177 26.5963867 27.0195933 30.5464133"></polygon>
            <polygon id="path_syq" fill="#EB8F35" points="32.35034 32.2666667 27.01908 30.54634 29.40586 26.66422 33.7333333 26.9810933"></polygon>
            <polygon id="path_syq" fill="#E8821E" points="23.8841533 17.55314 26.5831867 19.8506733 28.6465667 22.3972467 23.5049467 22.5896733"></polygon>
            <polygon id="path_syq" fill="#DFCEC3" points="27.0187867 30.54634 23.6951 28.19212 23.9404733 30.2293933 23.9404733 31.3725133 26.2045667 30.93112"></polygon>
            <polygon id="path_syq" fill="#DFCEC3" points="16.98114 30.54634 20.24902 28.19212 19.9925 30.2293933 19.9925 31.3725133 17.7395533 30.93112"></polygon>
            <polygon id="path_syq" fill="#393939" points="24.8895533 23.66474 24.1980933 25.1361 26.6406067 24.4909133"></polygon>
            <polygon id="path_syq" fill="#E88F35" points="32.41876 11 23.8865 17.55314 25.3253 13.9879667"></polygon>
            <path d="M32.4172933,11 L33.5437667,14.4972667 L32.9191867,18.3227733 L33.3541267,18.5718133 L32.7295467,19.14902 L33.23144,19.5904133 L32.53998,20.2242333 L32.97492,20.6090133 L31.9711333,21.8766533 L27.2644533,20.41666 C24.96692,18.5491533 23.8293,17.59846 23.8738867,17.55314 C23.9185467,17.5078933 26.7737067,15.3235133 32.4172933,11 Z" id="path_syq" fill="#8E5A30"></path>
            <polygon id="path_syq" fill="#F89D35" points="12.0288667 21.8201133 10.2666667 26.9811667 14.66102 26.7208333 17.4828133 26.7208333 17.4828133 24.4912067 17.3601267 19.9186533 16.7355467 20.41666"></polygon>
            <polygon id="path_syq" fill="#D87C30" points="15.3534333 22.3973933 20.4950533 22.52184 19.9374267 25.1929333 17.4836933 24.5591133"></polygon>
            <polygon id="path_syq" fill="#EA8D3A" points="15.3534333 22.4537867 17.4836933 24.4909867 17.4836933 26.52826"></polygon>
            <polygon id="path_syq" fill="#F89D35" points="17.4832533 24.5587467 19.99272 25.1924933 20.80694 27.9314933 20.24924 28.24844 17.4832533 26.5959467"></polygon>
            <polygon id="path_syq" fill="#EB8F35" points="17.48318 26.5963867 16.9812133 30.5464133 20.2491667 28.2488067"></polygon>
            <polygon id="path_syq" fill="#EA8E3A" points="20.49344 22.5217667 20.8054 27.9317867 19.8694467 25.1702"></polygon>
            <polygon id="path_syq" fill="#D87C30" points="14.59502 26.6642933 17.4837667 26.5963867 16.9818733 30.5464133"></polygon>
            <polygon id="path_syq" fill="#EB8F35" points="11.64966 32.2666667 16.98092 30.54634 14.59414 26.66422 10.2666667 26.9810933"></polygon>
            <polygon id="path_syq" fill="#E8821E" points="20.1158467 17.55314 17.4168133 19.8506733 15.3534333 22.3972467 20.4950533 22.5896733"></polygon>
            <polygon id="path_syq" fill="#393939" points="19.11118 23.66474 19.80264 25.1361 17.3601267 24.4909133"></polygon>
            <polygon id="path_syq" fill="#E88F35" points="11.5833667 11 20.1155533 17.55314 18.6767533 13.9879667"></polygon>
            <path d="M11.5827067,11 L10.4562333,14.4972667 L11.0808133,18.3227733 L10.6458733,18.5718133 L11.2704533,19.14902 L10.76856,19.5904133 L11.46002,20.2242333 L11.02508,20.6090133 L12.0288667,21.8766533 L16.7355467,20.41666 C19.03308,18.5491533 20.1707,17.59846 20.1261133,17.55314 C20.0814533,17.5078933 17.23744,15.3235133 11.5827067,11 Z" id="path_syq" fill="#8E5A30"></path>
        </g>
    </g>
</svg>