<svg width="200" height="200" viewBox="0 0 200 200" fill="none" xmlns="http://www.w3.org/2000/svg">
<g clip-path="url(#clip0_728_8917)">
<path d="M18.0801 60.8001V139.2C18.0801 144.24 20.7201 148.8 25.1201 151.36L93.0401 190.56C97.3601 193.04 102.72 193.04 107.04 190.56L174.96 151.36C179.28 148.88 182 144.24 182 139.2V60.8001C182 55.7601 179.36 51.2001 174.96 48.6401L107.04 9.44008C102.72 6.96008 97.3601 6.96008 93.0401 9.44008L25.1201 48.6401C20.8001 51.1201 18.1601 55.7601 18.1601 60.8001H18.0801Z" fill="#213147"/>
<path d="M114.8 115.2L105.12 141.76C104.88 142.48 104.88 143.28 105.12 144.08L121.76 189.76L141.04 178.64L117.92 115.2C117.36 113.76 115.36 113.76 114.8 115.2Z" fill="#12AAFF"/>
<path d="M134.24 70.56C133.68 69.12 131.68 69.12 131.12 70.56L121.44 97.12C121.2 97.84 121.2 98.64 121.44 99.44L148.72 174.24L168 163.12L134.24 70.64V70.56Z" fill="#12AAFF"/>
<path d="M99.9999 12.4C100.48 12.4 100.96 12.56 101.36 12.8L174.8 55.2C175.68 55.68 176.16 56.64 176.16 57.6V142.4C176.16 143.36 175.6 144.32 174.8 144.8L101.36 187.2C100.96 187.44 100.48 187.6 99.9999 187.6C99.5199 187.6 99.0399 187.44 98.6399 187.2L25.1999 144.8C24.3199 144.32 23.8399 143.36 23.8399 142.4V57.52C23.8399 56.56 24.3999 55.6 25.1999 55.12L98.6399 12.72C99.0399 12.48 99.5199 12.32 99.9999 12.32V12.4ZM99.9999 0C97.3599 0 94.7999 0.64 92.3999 2L18.9599 44.4C14.2399 47.12 11.3599 52.08 11.3599 57.52V142.32C11.3599 147.76 14.2399 152.72 18.9599 155.44L92.3999 197.84C94.7199 199.2 97.3599 199.84 99.9999 199.84C102.64 199.84 105.2 199.2 107.6 197.84L181.04 155.44C185.76 152.72 188.64 147.76 188.64 142.32V57.52C188.64 52.08 185.76 47.12 181.04 44.4L107.52 2C105.2 0.64 102.56 0 99.9199 0H99.9999Z" fill="#9DCCED"/>
<path d="M51.3599 174.32L58.1599 155.76L71.7599 167.04L59.0399 178.72L51.3599 174.32Z" fill="#213147"/>
<path d="M93.7601 51.5199H75.1201C73.7601 51.5199 72.4801 52.3999 72.0001 53.6799L32.0801 163.12L51.3601 174.24L95.3601 53.6799C95.7601 52.5599 94.9601 51.4399 93.8401 51.4399L93.7601 51.5199Z" fill="white"/>
<path d="M126.4 51.5199H107.76C106.4 51.5199 105.12 52.3999 104.64 53.6799L59.04 178.64L78.32 189.76L127.92 53.6799C128.32 52.5599 127.52 51.4399 126.4 51.4399V51.5199Z" fill="white"/>
</g>
<defs>
<clipPath id="clip0_728_8917">
<rect width="200" height="200" fill="white"/>
</clipPath>
</defs>
</svg>
