<svg width="2000" height="2000" viewBox="0 0 2000 2000" fill="none" xmlns="http://www.w3.org/2000/svg">
<g clip-path="url(#clip0_2891_39569)">
<path d="M1000 2000C1552.28 2000 2000 1552.28 2000 1000C2000 447.715 1552.28 0 1000 0C447.715 0 0 447.715 0 1000C0 1552.28 447.715 2000 1000 2000Z" fill="#8247E5"/>
<path d="M1334.33 778.607C1310.57 765.03 1280.03 765.03 1252.87 778.607L1062.79 890.618L933.812 961.897L747.128 1073.91C723.368 1087.48 692.82 1087.48 665.666 1073.91L519.713 985.657C495.953 972.08 478.982 944.926 478.982 914.378V744.665C478.982 717.511 492.559 690.357 519.713 673.385L665.666 588.529C689.426 574.952 719.974 574.952 747.128 588.529L893.081 676.78C916.841 690.357 933.812 717.511 933.812 748.059V860.07L1062.79 785.396V669.991C1062.79 642.837 1049.22 615.683 1022.06 598.712L750.522 439.182C726.762 425.605 696.214 425.605 669.06 439.182L390.731 602.106C363.577 615.683 350 642.837 350 669.991V989.051C350 1016.21 363.577 1043.36 390.731 1060.33L665.666 1219.86C689.426 1233.44 719.974 1233.44 747.128 1219.86L933.812 1111.24L1062.79 1036.57L1249.48 927.955C1273.24 914.378 1303.79 914.378 1330.94 927.955L1476.89 1012.81C1500.65 1026.39 1517.62 1053.54 1517.62 1084.09V1253.8C1517.62 1280.96 1504.05 1308.11 1476.89 1325.08L1334.33 1409.94C1310.57 1423.52 1280.03 1423.52 1252.87 1409.94L1106.92 1325.08C1083.16 1311.51 1066.19 1284.35 1066.19 1253.8V1145.19L937.206 1219.86V1331.87C937.206 1359.03 950.783 1386.18 977.937 1403.15L1252.87 1562.68C1276.63 1576.26 1307.18 1576.26 1334.33 1562.68L1609.27 1403.15C1633.03 1389.57 1650 1362.42 1650 1331.87V1009.42C1650 982.263 1636.42 955.109 1609.27 938.137L1334.33 778.607Z" fill="white"/>
</g>
<defs>
<clipPath id="clip0_2891_39569">
<rect width="2000" height="2000" fill="white"/>
</clipPath>
</defs>
</svg>
