<?xml version="1.0" encoding="UTF-8"?>
<svg width="95px" height="95px" viewBox="0 0 95 95" version="1.1" xmlns="http://www.w3.org/2000/svg" xmlns:xlink="http://www.w3.org/1999/xlink">
    <title>general</title>
    <g id="box" stroke="none" stroke-width="1" fill="none" fill-rule="evenodd">
        <g id="W4.7.1-withdraw-compelet" transform="translate(-147.000000, -422.000000)" fill-rule="nonzero">
            <g id="general" transform="translate(147.000000, 422.000000)">
                <rect id="rect" fill="#000000" opacity="0" x="0" y="0" width="95" height="95"></rect>
                <path d="M53.237013,36.6316411 L53.237013,23.4415584 L33.1574675,23.4415584 C30.5280032,23.4415584 28.3766234,25.5613932 28.3766234,28.1523022 L28.3766234,70.5489965 C28.3766234,73.1399055 30.5280032,75.2597403 33.1574675,75.2597403 L61.8425325,75.2597403 C64.4719968,75.2597403 66.6233766,73.1399055 66.6233766,70.5489965 L66.6233766,36.6316411 L53.237013,36.6316411 L53.237013,36.6316411 Z M57.3007305,45.9589138 L46.6394481,58.772137 L44.6314935,56.8878394 L42.623539,58.8192444 L42.623539,54.9564345 L55.0537338,47.0894923 L41.2849026,53.6845336 L37.6992695,50.387013 L37.6992695,49.963046 L57.3007305,45.5349469 L57.3007305,45.9589138 L57.3007305,45.9589138 Z" id="形状" fill="#6E727E" opacity="0.2"></path>
                <path d="M9.87012987,82.6623377 C9.87012987,85.3878988 26.9937846,87.5974026 48.1168831,87.5974026 C69.2399817,87.5974026 86.3636364,85.3878988 86.3636364,82.6623377 C86.3636364,79.9367766 69.2399817,77.7272727 48.1168831,77.7272727 C26.9937846,77.7272727 9.87012987,79.9367766 9.87012987,82.6623377 Z" id="paths" fill="#656870" opacity="0.1"></path>
                <path d="M8.63636364,48.971029 C8.63636364,49.7777223 9.24944353,50.3946054 10.0511634,50.3946054 C10.8528832,50.3946054 11.4659631,49.7777223 11.4659631,48.971029 C11.4659631,48.1643357 10.8528832,47.5474525 10.0511634,47.5474525 C9.29660352,47.5474525 8.63636364,48.2117882 8.63636364,48.971029 Z M13.3523628,76.4935065 C13.3523628,77.3001998 13.9654427,77.9170829 14.7671626,77.9170829 C15.5688824,77.9170829 16.1819623,77.3001998 16.1819623,76.4935065 C16.1819623,75.6868132 15.5688824,75.0699301 14.7671626,75.0699301 C14.0126027,75.0699301 13.3523628,75.7342657 13.3523628,76.4935065 L13.3523628,76.4935065 Z M85.1298701,78.8661339 C83.7150704,79.2457542 83.3849504,79.5304695 83.0076705,81.0014985 C82.6303906,79.5779221 82.3474306,79.2457542 80.8854709,78.8661339 C82.3002706,78.4865135 82.6303906,78.1543457 83.0076705,76.7307692 C83.3849504,78.1543457 83.6679104,78.4865135 85.1298701,78.8661339 Z M18.162682,43.6088911 C15.2859225,44.3681319 14.6728426,44.985015 13.9182827,47.8796204 C13.1637228,44.985015 12.5506429,44.3681319 9.67388345,43.6088911 C12.5506429,42.8496503 13.1637228,42.2327672 13.9182827,39.3381618 C14.6728426,42.2327672 15.2859225,42.8496503 18.162682,43.6088911 L18.162682,43.6088911 Z M75.4620718,20.1673327 C74.0472721,20.546953 73.7643121,20.8316683 73.3870322,22.2552448 C73.0097523,20.8316683 72.7267923,20.546953 71.3119926,20.1673327 C72.7267923,19.7877123 73.0097523,19.502997 73.3870322,18.0794206 C73.7171521,19.502997 74.0472721,19.7877123 75.4620718,20.1673327 Z M81.0741108,12.8596404 C77.3956315,13.8086913 76.6410716,14.6153846 75.6507118,18.3166833 C74.707512,14.6153846 73.9057921,13.8561439 70.2273128,12.8596404 C73.9057921,11.9105894 74.660352,11.1038961 75.6507118,7.4025974 C76.5939116,11.0564436 77.3956315,11.8631369 81.0741108,12.8596404 Z M71.9250725,31.5559441 C71.9250725,31.461039 71.9250725,31.3661339 71.8779125,31.3186813 L71.8779125,31.2712288 C71.8779125,31.2237762 71.8307525,31.1288711 71.8307525,31.0814186 C71.8307525,31.033966 71.8307525,31.033966 71.7835925,30.9865135 C71.7364325,30.9390609 71.7364325,30.8916084 71.6892725,30.8441558 L71.6421125,30.7967033 C71.5949525,30.7492507 71.5477925,30.6543457 71.5006325,30.6068931 L58.2958349,17.3201798 C58.2486749,17.2727273 58.2015149,17.2252747 58.1071949,17.1778222 L58.0600349,17.1303696 C58.0128749,17.0829171 57.9657149,17.0829171 57.9185549,17.0354645 C57.8713949,17.0354645 57.8713949,17.0354645 57.824235,16.988012 C57.777075,16.9405594 57.682755,16.9405594 57.635595,16.9405594 L57.588435,16.9405594 C57.494115,16.9405594 57.399795,16.8931069 57.352635,16.8931069 L32.7822794,16.8931069 C26.7929604,16.8931069 21.9354813,21.7807193 21.9354813,27.8071928 L21.9354813,70.5144855 C21.9354813,76.540959 26.7929604,81.4285714 32.7822794,81.4285714 L61.0782744,81.4285714 C67.0675933,81.4285714 71.9250725,76.540959 71.9250725,70.5144855 L71.9250725,31.5559441 C71.9250725,31.6033966 71.9250725,31.6033966 71.9250725,31.5559441 L71.9250725,31.5559441 Z M58.7202748,21.7332667 L67.1147533,30.1798202 L58.7202748,30.1798202 L58.7202748,21.7332667 L58.7202748,21.7332667 Z M61.0782744,78.5814186 L32.7822794,78.5814186 C28.3492402,78.5814186 24.7650808,74.975025 24.7650808,70.5144855 L24.7650808,27.8071928 C24.7650808,23.3466533 28.3492402,19.7402597 32.7822794,19.7402597 L55.8906753,19.7402597 L55.8906753,31.6033966 C55.8906753,32.4100899 56.5037552,33.026973 57.305475,33.026973 L69.095473,33.026973 L69.095473,70.5144855 C69.095473,74.975025 65.5113136,78.5814186 61.0782744,78.5814186 Z" id="形状" fill="#575960" opacity="0.5"></path>
            </g>
        </g>
    </g>
</svg>